<svg xmlns="http://www.w3.org/2000/svg" width="88.438" height="74.139" viewBox="0 0 88.438 74.139"><path d="M91.94.96c-22.989,4.885-35.92,20.4-35.92,43.1C56.02,61.88,65.5,75.1,78.434,75.1c8.333,0,14.943-6.322,14.943-14.081,0-8.046-6.609-14.368-14.943-14.368a23.228,23.228,0,0,0-5.747.862,12.647,12.647,0,0,1-2.874.575c-3.448,0-5.172-3.161-5.172-8.908,0-16.38,9.77-27.3,27.3-30.747Zm51.081,0c-23.276,4.885-36.207,20.4-36.207,43.1,0,17.816,9.77,31.035,22.7,31.035,8.333,0,14.943-6.322,14.943-14.081,0-8.046-6.609-14.368-15.23-14.368a27.671,27.671,0,0,0-5.747.862,12.647,12.647,0,0,1-2.874.575c-3.448,0-5.172-3.161-5.172-8.908,0-16.38,9.77-27.3,27.587-30.747Z" transform="translate(-56.02 -0.96)" fill="#c39d48" opacity="0.25"/></svg>