<svg xmlns="http://www.w3.org/2000/svg" width="140.29" height="25.004" viewBox="0 0 140.29 25.004"><path d="M12.661-21.006,9.473-14.541,2.339-13.5a1.563,1.563,0,0,0-.864,2.666L6.636-5.806,5.415,1.3A1.562,1.562,0,0,0,7.681,2.944L14.062-.41l6.382,3.354A1.563,1.563,0,0,0,22.71,1.3l-1.221-7.1,5.161-5.029a1.563,1.563,0,0,0-.864-2.666l-7.134-1.04-3.188-6.465A1.564,1.564,0,0,0,12.661-21.006Zm28.542,0-3.188,6.465L30.881-13.5a1.563,1.563,0,0,0-.864,2.666l5.161,5.029L33.957,1.3a1.562,1.562,0,0,0,2.266,1.646L42.6-.41l6.382,3.354A1.563,1.563,0,0,0,51.252,1.3l-1.221-7.1,5.161-5.029a1.563,1.563,0,0,0-.864-2.666l-7.134-1.04-3.188-6.465A1.564,1.564,0,0,0,41.2-21.006Zm28.542,0-3.188,6.465L59.422-13.5a1.563,1.563,0,0,0-.864,2.666l5.161,5.029L62.5,1.3a1.562,1.562,0,0,0,2.266,1.646L71.146-.41l6.382,3.354A1.563,1.563,0,0,0,79.793,1.3l-1.221-7.1,5.161-5.029a1.563,1.563,0,0,0-.864-2.666l-7.134-1.04-3.188-6.465A1.564,1.564,0,0,0,69.744-21.006Zm28.542,0L95.1-14.541,87.964-13.5a1.563,1.563,0,0,0-.864,2.666l5.161,5.029L91.04,1.3a1.562,1.562,0,0,0,2.266,1.646L99.687-.41l6.382,3.354A1.563,1.563,0,0,0,108.335,1.3l-1.221-7.1,5.161-5.029a1.563,1.563,0,0,0-.864-2.666l-7.134-1.04-3.188-6.465A1.564,1.564,0,0,0,98.286-21.006Zm28.542,0-3.188,6.465-7.134,1.04a1.563,1.563,0,0,0-.864,2.666L120.8-5.806l-1.221,7.1a1.562,1.562,0,0,0,2.266,1.646L128.229-.41l6.382,3.354A1.563,1.563,0,0,0,136.877,1.3l-1.221-7.1,5.161-5.029a1.563,1.563,0,0,0-.864-2.666l-7.134-1.04-3.188-6.465A1.564,1.564,0,0,0,126.828-21.006Z" transform="translate(-1.001 21.876)" fill="#c39d48"/></svg>