<svg xmlns="http://www.w3.org/2000/svg" xmlns:xlink="http://www.w3.org/1999/xlink" width="254.187" height="384.869" viewBox="0 0 254.187 384.869"><defs><linearGradient id="a" x1="-0.014" y1="0.5" x2="1.688" y2="0.5" gradientUnits="objectBoundingBox"><stop offset="0" stop-color="#e0c982"/><stop offset="1" stop-color="#a38d5f"/></linearGradient><linearGradient id="b" x1="-0.008" y1="0.5" x2="0.956" y2="0.5" xlink:href="#a"/></defs><g transform="translate(-296.829 -299.86)"><g transform="translate(304.69 299.86)"><g transform="translate(0.801)"><path d="M442.136,499.836v-6.113s-18.341-11.718-48.908-11.718-85.59,23.18-85.59,77.948S364.7,635.1,397.049,635.1s45.088-12.482,45.088-12.482v-5.6s-86.354,4.839-92.723-58.461C351.961,501.038,442.136,499.836,442.136,499.836Z" transform="translate(-307.638 -336.044)" fill="url(#a)"/><path d="M316.087,387.488h-8.449S325.47,299.86,414.116,299.86,520.593,364.052,521.1,387.488s0,178.312,0,178.312,2.038,20.888,24.2,26.492V598.4s-64.446,5.095-64.446-33.37V433.084H442.136v-6.241s35.662,2.165,37.955-39.61c0-35.917-33.115-62.361-67.758-62.361S337.341,335.14,316.087,387.488Z" transform="translate(-307.638 -299.86)" fill="url(#b)"/></g><path d="M412.1,329.559H306.639V597.318H480.912V329.559Zm68.013,60.451c-3.846-30.623-21.257-45.3-35.491-52.254a80.794,80.794,0,0,0-25.864-7.4h61.355Zm-172.27,42.459a124.288,124.288,0,0,1,13.11-50.9c7.616-14.752,18.1-26.5,31.166-34.931,16.154-10.419,36.334-15.75,59.981-15.869v101.7H307.841Zm134.57-28.075h-29.1c-.006-.027-.012-.054-.018-.081l-.393.081V393.747h29.512Zm0,.8v26.875h-.048c-.228.027-22.388,2.326-28.878-26.876Zm.8,0V393.747h36.5a52.228,52.228,0,0,1-5.213,19.2c-6.294,12.441-16.807,18.852-31.284,19.1Zm0-12.25H412.9V330.761h0a78.861,78.861,0,0,1,31.393,7.728c14.48,7.077,32.293,22.279,35.334,54.456ZM412.9,406.229c4.645,19.561,16.344,24.868,23.54,26.241H412.9Zm67.212-8.846V432.47H448.533C472.917,429.185,478.753,406.41,480.111,397.383ZM401.771,330.36c-26.688,1.95-48.334,11.075-64.45,27.208-23.128,23.153-28.593,54.889-29.88,68.419V330.36ZM307.44,435.053c5.539,36.085,17.809,67.012,36.527,91.925a168.641,168.641,0,0,0,58.4,48.881,199.189,199.189,0,0,0,71.169,20.658H307.44Zm172.67,161.064c-.474,0-37.735-.6-77.381-20.97a167.843,167.843,0,0,1-58.121-48.65c-18.935-25.2-31.256-56.587-36.641-93.225H480.111Z" transform="translate(-306.639 -305.76)" fill="#fff"/></g><g transform="translate(302.524 669.224)"><path d="M303.936,761.1h6.013a4.513,4.513,0,1,1,0,9.02H305.8v5.946h-1.862Zm5.789,1.66H305.8v5.7h3.927a2.853,2.853,0,1,0,0-5.7Z" transform="translate(-303.936 -760.852)" fill="#fff"/><path d="M325.272,761.1h1.862v13.306h6.956v1.66h-8.818Z" transform="translate(-308.175 -760.852)" fill="#fff"/><path d="M353.492,772.745h-7.584l-1.324,3.321h-2.065l6.013-14.966h2.312l6.035,14.966h-2.064Zm-7.045-1.66h6.484L349.7,762.76Z" transform="translate(-311.601 -760.852)" fill="#fff"/><path d="M367.363,772.488a6.327,6.327,0,0,0,4.712,2.131c2.67,0,3.522-1.436,3.522-2.579,0-1.8-1.817-2.289-3.791-2.828-2.4-.628-5.072-1.3-5.072-4.241,0-2.467,2.2-4.15,5.139-4.15a7.036,7.036,0,0,1,5.317,2.087l-1.122,1.369a5.725,5.725,0,0,0-4.33-1.795c-1.8,0-3.074.965-3.074,2.378,0,1.5,1.727,1.952,3.635,2.468,2.446.65,5.227,1.414,5.227,4.554,0,2.177-1.48,4.4-5.519,4.4a7.412,7.412,0,0,1-5.744-2.378Z" transform="translate(-316.318 -760.797)" fill="#fff"/><path d="M391.969,762.76h-4.734V761.1h11.353v1.66h-4.756v13.306h-1.863Z" transform="translate(-320.484 -760.852)" fill="#fff"/><path d="M409.384,761.1h1.862v14.966h-1.862Z" transform="translate(-324.884 -760.852)" fill="#fff"/><path d="M420.22,768.533a7.471,7.471,0,0,1,7.628-7.742,6.729,6.729,0,0,1,5.744,2.963l-1.571.875a5.079,5.079,0,0,0-4.173-2.176,6.093,6.093,0,0,0,0,12.16,5.024,5.024,0,0,0,4.173-2.176l1.593.874a6.806,6.806,0,0,1-5.766,2.963A7.47,7.47,0,0,1,420.22,768.533Z" transform="translate(-327.037 -760.791)" fill="#fff"/><path d="M456.907,772.488a6.328,6.328,0,0,0,4.711,2.131c2.67,0,3.523-1.436,3.523-2.579,0-1.8-1.818-2.289-3.792-2.828-2.4-.628-5.072-1.3-5.072-4.241,0-2.467,2.2-4.15,5.139-4.15a7.033,7.033,0,0,1,5.317,2.087l-1.121,1.369a5.729,5.729,0,0,0-4.33-1.795c-1.8,0-3.074.965-3.074,2.378,0,1.5,1.728,1.952,3.635,2.468,2.445.65,5.227,1.414,5.227,4.554,0,2.177-1.48,4.4-5.52,4.4a7.411,7.411,0,0,1-5.743-2.378Z" transform="translate(-334.106 -760.797)" fill="#fff"/><path d="M478.235,761.1H480.1v9.11c0,2.737,1.482,4.464,4.241,4.464s4.241-1.727,4.241-4.464V761.1h1.863v9.132c0,3.725-2.042,6.1-6.1,6.1s-6.1-2.4-6.1-6.081Z" transform="translate(-338.562 -760.852)" fill="#fff"/><path d="M507.582,770.12H504.6v5.946h-1.862V761.1h6.013a4.36,4.36,0,0,1,4.69,4.51,4.135,4.135,0,0,1-3.882,4.353l4.039,6.1h-2.2Zm.942-7.36H504.6v5.722h3.927a2.863,2.863,0,1,0,0-5.722Z" transform="translate(-343.429 -760.852)" fill="#fff"/><path d="M531.6,760.791a7.137,7.137,0,0,1,5.811,2.8l-1.482.921a5.518,5.518,0,0,0-4.33-2.064,6.1,6.1,0,0,0,0,12.184,5.9,5.9,0,0,0,4.016-1.615v-3.052h-5.138v-1.66h7v5.407A7.8,7.8,0,0,1,531.6,776.3a7.753,7.753,0,0,1,0-15.505Z" transform="translate(-347.634 -760.791)" fill="#fff"/><path d="M549.522,761.1h9.806v1.66h-7.943v4.824h7.785v1.66h-7.785v5.161h7.943v1.66h-9.806Z" transform="translate(-352.723 -760.852)" fill="#fff"/><path d="M575.2,770.12h-2.984v5.946h-1.863V761.1h6.013a4.36,4.36,0,0,1,4.69,4.51,4.135,4.135,0,0,1-3.882,4.353l4.039,6.1h-2.2Zm.942-7.36h-3.927v5.722h3.927a2.863,2.863,0,1,0,0-5.722Z" transform="translate(-356.862 -760.852)" fill="#fff"/><path d="M595.8,769.739l-5.9-8.639h2.176l4.645,6.956,4.645-6.956h2.177l-5.879,8.639v6.327H595.8Z" transform="translate(-360.744 -760.852)" fill="#fff"/></g><g transform="translate(296.829 626.736)"><path d="M316.5,728.966H303.4l-2.164,5.529h-4.407l10.619-26.726h5.008L323.075,734.5h-4.408Zm-11.94-3.566h10.779l-5.41-14.145Z" transform="translate(-296.829 -707.77)" fill="#fff"/><path d="M358.823,711.3h-8.294V707.77h20.556V711.3H362.83v23.2h-4.008Z" transform="translate(-307.497 -707.77)" fill="#fff"/><path d="M403.829,707.77H421.78V711.3H407.836v7.814H421.5v3.527H407.836v8.334H421.78V734.5H403.829Z" transform="translate(-318.085 -707.77)" fill="#fff"/><path d="M454.929,707.77h4.007v23.2h12.14V734.5H454.929Z" transform="translate(-328.237 -707.77)" fill="#fff"/><path d="M503.028,707.77h4.007V734.5h-4.007Z" transform="translate(-337.792 -707.77)" fill="#fff"/><path d="M537.927,707.77h17.952V711.3H541.934v7.814H555.6v3.527H541.934v8.334h13.945V734.5H537.927Z" transform="translate(-344.725 -707.77)" fill="#fff"/><path d="M598.044,724.2h-5.009v10.3h-4.007V707.77h11.26c5.089,0,8.575,3.286,8.575,8.214a7.456,7.456,0,0,1-6.652,7.814l6.852,10.7h-4.649Zm1.722-12.9h-6.731v9.377h6.731a4.7,4.7,0,1,0,0-9.377Z" transform="translate(-354.876 -707.77)" fill="#fff"/></g></g></svg>