<svg xmlns="http://www.w3.org/2000/svg" xmlns:xlink="http://www.w3.org/1999/xlink" width="31.733" height="39.93" viewBox="0 0 31.733 39.93"><defs><linearGradient id="a" x1="-0.014" y1="0.5" x2="1.688" y2="0.5" gradientUnits="objectBoundingBox"><stop offset="0" stop-color="#e0c982"/><stop offset="1" stop-color="#a38d5f"/></linearGradient><linearGradient id="b" x1="-0.008" y1="0.5" x2="0.956" y2="0.5" xlink:href="#a"/></defs><g transform="translate(-841.662 -3373.565)"><path d="M325.6,484.386v-.816a12.964,12.964,0,0,0-6.53-1.565c-4.082,0-11.428,3.1-11.428,10.408s7.619,10.034,11.938,10.034,6.02-1.667,6.02-1.667v-.748s-11.53.646-12.38-7.806C313.556,484.546,325.6,484.386,325.6,484.386Z" transform="translate(534.024 2911.049)" fill="url(#a)"/><path d="M308.766,311.56h-1.128s2.381-11.7,14.217-11.7,14.217,8.571,14.285,11.7,0,23.809,0,23.809a4.253,4.253,0,0,0,3.231,3.537v.816s-8.605.68-8.605-4.456V317.648H325.6v-.833s4.762.289,5.068-5.289c0-4.8-4.422-8.326-9.047-8.326S311.6,304.571,308.766,311.56Z" transform="translate(534.024 3073.706)" fill="url(#b)"/></g></svg>